<svg id="Capa_1" enable-background="new 0 0 512 512" height="512" viewBox="0 0 512 512" width="512" xmlns="http://www.w3.org/2000/svg"><g><path d="m91 446v20c0 8.28-6.72 15-15 15s-15-6.72-15-15v-20z" fill="#e6e1ff"/><path d="m451 446v20c0 8.28-6.72 15-15 15s-15-6.72-15-15v-20z" fill="#c8bdff"/><path d="m121 46v260h-30v-260c0-8.28 6.72-15 15-15s15 6.72 15 15z" fill="#3e5159"/><path d="m421 46v260h-30v-260c0-8.28 6.72-15 15-15s15 6.72 15 15z" fill="#293439"/><path d="m351.417 130.583c-52.812-52.813-138.012-52.822-190.833 0-5.858 5.858-5.858 15.355 0 21.213 5.857 5.858 15.355 5.858 21.213 0 41.088-41.088 107.311-41.096 148.407 0 5.857 5.858 15.355 5.859 21.213 0 5.857-5.858 5.857-15.355 0-21.213z" fill="#7bd1ff"/><path d="m351.42 151.8c-5.841 5.841-15.354 5.866-21.22 0-20.54-20.55-47.37-30.82-74.2-30.82v-30.01c34.5 0 69.01 13.2 95.42 39.61 5.85 5.86 5.85 15.36 0 21.22z" fill="#37a8f4"/><path d="m254.52 211.07c-8.16.847-14.292 8.12-13.45 16.41.786 7.575 7.342 14.19 16.41 13.45 7.61-.79 13.52-7.171 13.52-14.93 0-8.708-7.461-15.757-16.48-14.93z" fill="#7bd1ff"/><path d="m271 226c0 8.304-6.769 14.99-15 14.99v-29.99c8.34.02 15 6.77 15 15z" fill="#37a8f4"/><path d="m202.968 172.958c-5.861 5.855-5.865 15.353-.01 21.213 5.855 5.861 15.353 5.865 21.213.01 17.604-17.587 46.05-17.591 63.657 0 5.859 5.853 15.356 5.852 21.213-.01 5.855-5.86 5.851-15.358-.01-21.213-29.326-29.299-76.733-29.301-106.063 0z" fill="#7bd1ff"/><path d="m309.04 194.17c-5.861 5.861-15.35 5.87-21.21.01-8.81-8.8-20.32-13.19-31.83-13.19v-30.01c19.18 0 38.36 7.33 53.03 21.98 5.86 5.85 5.87 15.35.01 21.21z" fill="#37a8f4"/><path d="m477 301h-442c-19.299 0-35 15.701-35 35v80c0 19.299 15.701 35 35 35h442c19.299 0 35-15.701 35-35v-80c0-19.299-15.701-35-35-35z" fill="#f4f2fc"/><path d="m512 336v80c0 19.3-15.7 35-35 35h-221v-150h221c19.3 0 35 15.7 35 35z" fill="#e6e1ff"/><circle cx="76" cy="376" fill="#ee5016" r="15"/><circle cx="196" cy="376" fill="#7bcb46" r="15"/><circle cx="256" cy="376" fill="#7bcb46" r="15"/><g fill="#56ae45"><path d="m271 376c0 8.28-6.72 15-15 15v-30c8.28 0 15 6.72 15 15z"/><circle cx="316" cy="376" r="15"/><circle cx="376" cy="376" r="15"/></g></g></svg>